# xmcd
#
# Track frame offsets:
#	150
#	23935
#	41577
#	52402
#	67345
#	84952
#	95915
#	105825
#	118067
#	130995
#	143490
#	166840
#	182537
#	195045
#	207147
#	218577
#	227797
#
# Disc length: 3230 seconds
#
# Revision: 1
# Processed by: cddbd v1.5.1PL0 Copyright (c) Steve Scherf et al.
# Submitted via: EasyCDDAExtractor 5.1.0
#
DISCID=e80c9c11
DTITLE=Léo Ferré - Les poètes
DYEAR=1900
DGENRE=
TTITLE0=La poésie
TTITLE1=Spleen
TTITLE2=Une charogne
TTITLE3=Le flacon
TTITLE4=L'étrangère
TTITLE5=La beauté
TTITLE6=L'adieu
TTITLE7=Elsa
TTITLE8=Je chante pour passer le temps
TTITLE9=Ecoutez la chanson bien douce
TTITLE10=Les poètes de 7 ans
TTITLE11=Art poétique
TTITLE12=Green
TTITLE13=Ame te souvient-il ?
TTITLE14=Chanson d'automne
TTITLE15=Rêvé pour l'hiver
TTITLE16=Les assis
EXTD=
EXTT0=
EXTT1=
EXTT2=
EXTT3=
EXTT4=
EXTT5=
EXTT6=
EXTT7=
EXTT8=
EXTT9=
EXTT10=
EXTT11=
EXTT12=
EXTT13=
EXTT14=
EXTT15=
EXTT16=
PLAYORDER=
